<svg width="170" height="100" viewBox="0 0 170 100" fill="none" xmlns="http://www.w3.org/2000/svg">
<path d="M71.64 67.584V69H62.76V52.68H71.4V54.096H64.32V60.024H70.68V61.44H64.32V67.584H71.64ZM75.8717 62.424V63.864C75.8717 65.176 76.1197 66.184 76.6157 66.888C77.1117 67.576 77.9037 67.92 78.9917 67.92C79.5037 67.92 80.0237 67.856 80.5517 67.728C81.0797 67.584 81.6157 67.384 82.1597 67.128L82.6397 68.304C81.4237 68.928 80.1677 69.24 78.8717 69.24C77.3837 69.24 76.2557 68.768 75.4877 67.824C74.7357 66.88 74.3597 65.56 74.3597 63.864V62.424C74.3597 60.744 74.7357 59.432 75.4877 58.488C76.2557 57.544 77.3837 57.072 78.8717 57.072C79.4317 57.072 80.0237 57.144 80.6477 57.288C81.2717 57.432 81.8637 57.648 82.4237 57.936L81.9437 59.136C81.4637 58.912 80.9757 58.736 80.4797 58.608C79.9837 58.464 79.4877 58.392 78.9917 58.392C77.9037 58.392 77.1117 58.736 76.6157 59.424C76.1197 60.112 75.8717 61.112 75.8717 62.424ZM94.7186 62.424V63.864C94.7186 65.56 94.2946 66.88 93.4466 67.824C92.5986 68.768 91.4066 69.24 89.8706 69.24C88.3186 69.24 87.1186 68.768 86.2706 67.824C85.4386 66.88 85.0226 65.56 85.0226 63.864V62.424C85.0226 60.792 85.4386 59.496 86.2706 58.536C87.1186 57.56 88.3186 57.072 89.8706 57.072C91.4226 57.072 92.6146 57.56 93.4466 58.536C94.2946 59.496 94.7186 60.792 94.7186 62.424ZM93.2066 62.424C93.2066 61.144 92.9186 60.152 92.3426 59.448C91.7666 58.744 90.9426 58.392 89.8706 58.392C88.7986 58.392 87.9746 58.744 87.3986 59.448C86.8226 60.152 86.5346 61.144 86.5346 62.424V63.864C86.5346 65.192 86.8226 66.2 87.3986 66.888C87.9746 67.576 88.7986 67.92 89.8706 67.92C90.9426 67.92 91.7666 67.576 92.3426 66.888C92.9186 66.2 93.2066 65.192 93.2066 63.864V62.424ZM104.608 68.544C103.728 69.008 102.84 69.24 101.944 69.24C101.144 69.24 100.52 69.08 100.072 68.76C99.6236 68.424 99.3116 67.984 99.1356 67.44C98.9596 66.896 98.8716 66.32 98.8716 65.712V58.584H96.7356V57.312H98.8716V53.904H100.312V57.312H104.272V58.584H100.312V65.592C100.312 66.488 100.448 67.112 100.72 67.464C101.008 67.8 101.472 67.968 102.112 67.968C102.72 67.968 103.384 67.776 104.104 67.392L104.608 68.544ZM113.299 58.512C112.627 58.512 111.955 58.64 111.283 58.896C110.611 59.152 109.827 59.72 108.931 60.6V69H107.491V57.312H108.859V59.256C109.675 58.408 110.435 57.832 111.139 57.528C111.843 57.224 112.563 57.072 113.299 57.072V58.512ZM124.303 69.12C123.647 69.12 123.103 68.96 122.671 68.64C122.239 68.304 121.983 67.864 121.903 67.32C121.039 68.088 120.279 68.6 119.623 68.856C118.967 69.112 118.351 69.24 117.775 69.24C116.751 69.24 115.991 68.912 115.495 68.256C115.015 67.584 114.775 66.784 114.775 65.856C114.775 65.232 114.887 64.672 115.111 64.176C115.351 63.68 115.743 63.288 116.287 63C116.831 62.696 117.575 62.544 118.519 62.544C118.951 62.544 119.455 62.576 120.031 62.64C120.607 62.688 121.167 62.76 121.711 62.856V61.128C121.711 60.088 121.511 59.376 121.111 58.992C120.711 58.592 120.087 58.392 119.239 58.392C118.663 58.392 118.095 58.472 117.535 58.632C116.975 58.776 116.391 58.992 115.783 59.28L115.279 58.104C115.935 57.768 116.583 57.512 117.223 57.336C117.879 57.16 118.551 57.072 119.239 57.072C120.311 57.072 121.119 57.248 121.663 57.6C122.223 57.936 122.607 58.392 122.815 58.968C123.023 59.544 123.127 60.184 123.127 60.888V66.312C123.127 66.76 123.199 67.12 123.343 67.392C123.503 67.664 123.807 67.8 124.255 67.8H124.543V69.12H124.303ZM116.263 65.856C116.263 66.496 116.407 67.008 116.695 67.392C116.999 67.776 117.431 67.968 117.991 67.968C118.439 67.968 118.959 67.824 119.551 67.536C120.159 67.248 120.879 66.728 121.711 65.976V64.128C121.151 64.032 120.575 63.96 119.983 63.912C119.407 63.848 118.927 63.816 118.543 63.816C117.743 63.816 117.159 63.984 116.791 64.32C116.439 64.64 116.263 65.152 116.263 65.856ZM128.512 62.424V63.864C128.512 65.176 128.76 66.184 129.256 66.888C129.752 67.576 130.544 67.92 131.632 67.92C132.144 67.92 132.664 67.856 133.192 67.728C133.72 67.584 134.256 67.384 134.8 67.128L135.28 68.304C134.064 68.928 132.808 69.24 131.512 69.24C130.024 69.24 128.896 68.768 128.128 67.824C127.376 66.88 127 65.56 127 63.864V62.424C127 60.744 127.376 59.432 128.128 58.488C128.896 57.544 130.024 57.072 131.512 57.072C132.072 57.072 132.664 57.144 133.288 57.288C133.912 57.432 134.504 57.648 135.064 57.936L134.584 59.136C134.104 58.912 133.616 58.736 133.12 58.608C132.624 58.464 132.128 58.392 131.632 58.392C130.544 58.392 129.752 58.736 129.256 59.424C128.76 60.112 128.512 61.112 128.512 62.424ZM145.772 69L142.196 63.216C141.844 63.568 141.476 63.928 141.092 64.296C140.708 64.648 140.3 65.008 139.868 65.376V69H138.428V51.24H139.868V63.72C141.004 62.68 142.02 61.648 142.916 60.624C143.812 59.584 144.636 58.48 145.388 57.312H147.02C146.428 58.256 145.836 59.12 145.244 59.904C144.652 60.672 143.98 61.456 143.228 62.256L147.524 69H145.772Z" fill="black"/>
<path d="M59 42C65 42.5 71 40 73 40C72 38.5 67 31.5 58.5 29C52.7047 27.2955 49.3333 30.4019 49 31.9576L50.5 40.9576C52.9789 41.291 55 42 59 42Z" fill="url(#paint0_linear_2003_46)" stroke="black"/>
<path d="M36.5 26C30.521 26.3064 23.3189 33.4278 22 37C32 42.5 37.4141 33.9756 45.3708 39.7431L47.132 37.9834L47.0552 36.4854L46.9784 34.9874L46.8505 32.4906C46.9145 30.4847 44.141 25.6084 36.5 26Z" fill="url(#paint1_linear_2003_46)" stroke="black"/>
<path d="M47.5 60.5C44 71 41 74 37.5 72.5C34.7 71.3 36.3333 70 37.5 69.5C39.9865 68.0081 44.9462 59.9212 44.9996 39.5C44.5 37.5 44.7628 35 45.7628 33C46.7628 31 50 30 51 33.5C51.5603 35.4611 51 39.3333 50.5 40.5C50.5 45 50.1055 52.6834 47.5 60.5Z" fill="url(#paint2_linear_2003_46)" stroke="black"/>
<path d="M37.5 53.5C38.5 46.5 43 38 48 38.5C52.5 38.5 54.5 48.5 53.5 56.5C52.5615 64.0079 42.5 68.5 42.5 68.5C42.5 68.5 36.3571 61.5 37.5 53.5Z" fill="url(#paint3_linear_2003_46)" stroke="black"/>
<defs>
<linearGradient id="paint0_linear_2003_46" x1="49.5" y1="36.4576" x2="77" y2="31.4576" gradientUnits="userSpaceOnUse">
<stop offset="0.0913461" stop-color="#465E39"/>
<stop offset="0.343195" stop-color="#91C476"/>
<stop offset="0.572243" stop-color="#91C476"/>
<stop offset="1" stop-color="#465E39"/>
</linearGradient>
<linearGradient id="paint1_linear_2003_46" x1="17.1201" y1="38.5203" x2="45.4036" y2="33.5661" gradientUnits="userSpaceOnUse">
<stop stop-color="#6A8F56"/>
<stop offset="0.594342" stop-color="#91C476"/>
<stop offset="0.666751" stop-color="#91C476"/>
<stop offset="1" stop-color="#465E39"/>
</linearGradient>
<linearGradient id="paint2_linear_2003_46" x1="43.5938" y1="31.1833" x2="43.5938" y2="72.8622" gradientUnits="userSpaceOnUse">
<stop stop-color="#465E39"/>
<stop offset="0.0865385" stop-color="#91C476"/>
<stop offset="1" stop-color="#465E39"/>
</linearGradient>
<linearGradient id="paint3_linear_2003_46" x1="49" y1="35" x2="42" y2="68.5" gradientUnits="userSpaceOnUse">
<stop stop-color="#465E39"/>
<stop offset="1" stop-color="#91C476"/>
</linearGradient>
</defs>
</svg>
